# xmcd CD database file
#
# Track frame offsets:
#	150
#	13977
#	39588
#	51822
#	63145
#	81648
#	90863
#	105759
#	118040
#	128089
#	137656
#	154449
#	164106
#
# Disc length: 2349 seconds
#
# Revision: 1
# Processed by: cddbd v1.5PL3 Copyright (c) Steve Scherf et al.
# Submitted via: CDex 1.50
#
DISCID=aa092b0d
DTITLE=Arsen Dedic - Kinoteka
DYEAR=2002
DGENRE=
TTITLE0=arsen - Track  1
TTITLE1=arsen - Track  2
TTITLE2=arsen - Track  3
TTITLE3=arsen - Track  4
TTITLE4=arsen - Track  5
TTITLE5=arsen - Track  6
TTITLE6=arsen - Track  7
TTITLE7=arsen - Track  8
TTITLE8=arsen - Track  9
TTITLE9=arsen - Track 10
TTITLE10=arsen - Track 11
TTITLE11=arsen - Track 12
TTITLE12=arsen - Track 13
EXTD=YEAR: 2002
EXTT0=
EXTT1=
EXTT2=
EXTT3=
EXTT4=
EXTT5=
EXTT6=
EXTT7=
EXTT8=
EXTT9=
EXTT10=
EXTT11=
EXTT12=
PLAYORDER=
